<svg width="20" height="20" viewBox="0 0 20 20" fill="none" xmlns="http://www.w3.org/2000/svg">
<g clip-path="url(#clip0_1071_13601)">
<path d="M14.1665 5.00002H18.3332V6.66669H16.6665V17.5C16.6665 17.721 16.5787 17.933 16.4224 18.0893C16.2661 18.2456 16.0542 18.3334 15.8332 18.3334H4.1665C3.94549 18.3334 3.73353 18.2456 3.57725 18.0893C3.42097 17.933 3.33317 17.721 3.33317 17.5V6.66669H1.6665V5.00002H5.83317V2.50002C5.83317 2.27901 5.92097 2.06704 6.07725 1.91076C6.23353 1.75448 6.44549 1.66669 6.6665 1.66669H13.3332C13.5542 1.66669 13.7661 1.75448 13.9224 1.91076C14.0787 2.06704 14.1665 2.27901 14.1665 2.50002V5.00002ZM14.9998 6.66669H4.99984V16.6667H14.9998V6.66669ZM11.1782 11.6667L12.6515 13.14L11.4732 14.3184L9.99984 12.845L8.5265 14.3184L7.34817 13.14L8.8215 11.6667L7.34817 10.1934L8.5265 9.01502L9.99984 10.4884L11.4732 9.01502L12.6515 10.1934L11.1782 11.6667ZM7.49984 3.33335V5.00002H12.4998V3.33335H7.49984Z" fill="#84868E"/>
</g>
<defs>
<clipPath id="clip0_1071_13601">
<rect width="20" height="20" fill="white"/>
</clipPath>
</defs>
</svg>
