<svg width="20" height="20" viewBox="0 0 20 20" fill="none" xmlns="http://www.w3.org/2000/svg">
<g id="Icon">
<g id="Vector">
<path d="M9.16667 5.00008C9.16667 5.46032 8.79357 5.83341 8.33333 5.83341C7.8731 5.83341 7.5 5.46032 7.5 5.00008C7.5 4.53984 7.8731 4.16675 8.33333 4.16675C8.79357 4.16675 9.16667 4.53984 9.16667 5.00008Z" fill="#B3B5C0"/>
<path d="M12.5 5.00008C12.5 5.46032 12.1269 5.83341 11.6667 5.83341C11.2064 5.83341 10.8333 5.46032 10.8333 5.00008C10.8333 4.53984 11.2064 4.16675 11.6667 4.16675C12.1269 4.16675 12.5 4.53984 12.5 5.00008Z" fill="#B3B5C0"/>
<path d="M9.16667 8.33341C9.16667 8.79365 8.79357 9.16675 8.33333 9.16675C7.8731 9.16675 7.5 8.79365 7.5 8.33341C7.5 7.87318 7.8731 7.50008 8.33333 7.50008C8.79357 7.50008 9.16667 7.87318 9.16667 8.33341Z" fill="#B3B5C0"/>
<path d="M12.5 8.33341C12.5 8.79365 12.1269 9.16675 11.6667 9.16675C11.2064 9.16675 10.8333 8.79365 10.8333 8.33341C10.8333 7.87318 11.2064 7.50008 11.6667 7.50008C12.1269 7.50008 12.5 7.87318 12.5 8.33341Z" fill="#B3B5C0"/>
<path d="M9.16667 11.6667C9.16667 12.127 8.79357 12.5001 8.33333 12.5001C7.8731 12.5001 7.5 12.127 7.5 11.6667C7.5 11.2065 7.8731 10.8334 8.33333 10.8334C8.79357 10.8334 9.16667 11.2065 9.16667 11.6667Z" fill="#B3B5C0"/>
<path d="M12.5 11.6667C12.5 12.127 12.1269 12.5001 11.6667 12.5001C11.2064 12.5001 10.8333 12.127 10.8333 11.6667C10.8333 11.2065 11.2064 10.8334 11.6667 10.8334C12.1269 10.8334 12.5 11.2065 12.5 11.6667Z" fill="#B3B5C0"/>
<path d="M9.16667 15.0001C9.16667 15.4603 8.79357 15.8334 8.33333 15.8334C7.8731 15.8334 7.5 15.4603 7.5 15.0001C7.5 14.5398 7.8731 14.1667 8.33333 14.1667C8.79357 14.1667 9.16667 14.5398 9.16667 15.0001Z" fill="#B3B5C0"/>
<path d="M12.5 15.0001C12.5 15.4603 12.1269 15.8334 11.6667 15.8334C11.2064 15.8334 10.8333 15.4603 10.8333 15.0001C10.8333 14.5398 11.2064 14.1667 11.6667 14.1667C12.1269 14.1667 12.5 14.5398 12.5 15.0001Z" fill="#B3B5C0"/>
</g>
</g>
</svg>
