<svg width="92" height="32" viewBox="0 0 92 32" fill="none" xmlns="http://www.w3.org/2000/svg">
<g id="Logo Text">
<path id="Vector" d="M22.1278 31.5934H0V27.5094L14.256 7.10718H0.380751V1.9094H21.7382V5.96685L7.4999 26.3956H22.119V31.5934H22.1278ZM42.1571 31.5934L41.3247 28.6939H40.9971C40.333 29.7459 39.3944 30.568 38.1725 31.1514C36.9505 31.7171 35.5603 32 34.0019 32C31.3278 32 29.3178 31.2928 27.963 29.8696C26.6083 28.4376 25.9265 26.3779 25.9265 23.6995V8.90166H32.1247V22.1613C32.1247 23.7967 32.4169 25.0343 33.0013 25.8564C33.5858 26.6696 34.5155 27.0762 35.7906 27.0762C37.5261 27.0762 38.7834 26.5017 39.5538 25.3525C40.3242 24.1856 40.7138 22.2674 40.7138 19.589V8.9105H46.912V31.6111H42.1571V31.5934ZM59.2997 31.5934H53.1014V0H59.2997V31.5934ZM81.3213 31.5934H63.364V27.9426L73.9011 13.6309H64.0015V8.90166H80.9671V12.9238L70.7134 26.8729H81.3301V31.5934H81.3213ZM85.2527 3.03205C85.2527 1.01658 86.3773 0.00884841 88.6264 0.00884841C90.8755 0.00884841 92 1.01658 92 3.03205C92 3.99558 91.7167 4.74697 91.15 5.28619C90.5921 5.81658 89.7509 6.08177 88.6264 6.08177C86.3773 6.07293 85.2527 5.05636 85.2527 3.03205ZM91.7166 31.5934H85.5184V8.89283H91.7166V31.5934Z" fill="white"/>
</g>
</svg>
