<svg width="65" height="65" viewBox="0 0 65 65" fill="none" xmlns="http://www.w3.org/2000/svg">
<g clip-path="url(#clip0_76_17066)">
<rect x="0.254395" y="0.247787" width="64" height="64" rx="8" fill="white"/>
<path d="M63.6665 0.247787H0.842255C0.524231 0.247787 0.254395 0.50799 0.254395 0.835651V63.6599C0.254395 63.978 0.514594 64.2478 0.842255 64.2478H63.6665C63.9845 64.2478 64.2544 63.9876 64.2544 63.6599V0.826014C64.2544 0.507989 63.9845 0.247787 63.6665 0.247787ZM12.8501 17.9993H51.4467L36.6248 31.8286L32.423 28.658L38.1571 22.9432H12.8501V17.9993ZM51.5912 46.6504H13.1585L27.8454 33.0525L32.0472 36.04L26.1589 41.7644H51.5816V46.6504H51.5912Z" fill="#D43D27"/>
</g>
<defs>
<clipPath id="clip0_76_17066">
<rect x="0.254395" y="0.247787" width="64" height="64" rx="8" fill="white"/>
</clipPath>
</defs>
</svg>
