<svg width="120" height="120" viewBox="0 0 120 120" fill="none" xmlns="http://www.w3.org/2000/svg">
<path d="M108.5 68.9673C108.5 95.2652 91.6706 98.7276 68.4734 109.716C45.2762 120.705 22.5338 89.5706 13.8917 68.9673C5.24958 48.3639 19.8047 5.78375 61.1958 21.3507C102.587 36.9177 108.5 42.6694 108.5 68.9673Z" fill="#CB311A" fill-opacity="0.1"/>
<path d="M48.1721 92.631L26.9141 66.819L34.1891 59.712L55.4471 85.524L48.1721 92.631Z" fill="#D43D27"/>
<path d="M25.6748 67.14L33.5498 59.379L37.5878 64.215L29.7128 71.976L25.6748 67.14Z" fill="#CB311A"/>
<path d="M43.0688 87.7201L50.7398 80.1466L55.2608 85.5241L47.5913 93.1006L43.0688 87.7201Z" fill="#F85F49"/>
<path d="M57.5 84.5L34.394 58.9006L76.787 19.2466L104.5 51.5L57.5 84.5Z" fill="white"/>
<path d="M42.611 67.6876L34.394 58.9006L76.787 19.2466L85.004 28.0306L42.611 67.6876Z" fill="#F8F8F9"/>
<path fill-rule="evenodd" clip-rule="evenodd" d="M76.364 17.8711L104.834 51.7231L56.642 85.1071L35.21 59.6311L76.364 17.8711Z" stroke="#1A1B1F" stroke-width="3" stroke-miterlimit="10" stroke-linecap="round" stroke-linejoin="round"/>
<path d="M41.024 85.6696L47.2145 93.0316L57.1445 84.6826L35.345 58.7626L25.4165 67.1116L35.2145 78.7636" stroke="#1A1B1F" stroke-width="3" stroke-miterlimit="10" stroke-linecap="round" stroke-linejoin="round"/>
<path d="M79.9204 53.7301L100.317 54.8521" stroke="#1A1B1F" stroke-width="3" stroke-miterlimit="10" stroke-linecap="round" stroke-linejoin="round"/>
<path d="M43.0269 51.6976L67.4079 53.0386" stroke="#1A1B1F" stroke-width="3" stroke-miterlimit="10" stroke-linecap="round" stroke-linejoin="round"/>
<path d="M25.4166 84.1996C25.1736 84.7516 25.4166 86.6236 25.4166 86.6236" stroke="#1A1B1F" stroke-width="3" stroke-miterlimit="10" stroke-linecap="round" stroke-linejoin="round"/>
<path d="M31.6309 88.269V92.631" stroke="#1A1B1F" stroke-width="3" stroke-miterlimit="10" stroke-linecap="round" stroke-linejoin="round"/>
<path d="M26.9136 96.4111V100.256" stroke="#1A1B1F" stroke-width="3" stroke-miterlimit="10" stroke-linecap="round" stroke-linejoin="round"/>
<path d="M35.2119 99.5986V102.129" stroke="#1A1B1F" stroke-width="3" stroke-miterlimit="10" stroke-linecap="round" stroke-linejoin="round"/>
<path d="M16.3731 94.4296L15.1641 100.865" stroke="#1A1B1F" stroke-width="3" stroke-miterlimit="10" stroke-linecap="round" stroke-linejoin="round"/>
<path d="M23.4141 90.4517V93.1007" stroke="#1A1B1F" stroke-width="3" stroke-miterlimit="10" stroke-linecap="round" stroke-linejoin="round"/>
</svg>
