<svg width="25" height="25" viewBox="0 0 25 25" fill="none" xmlns="http://www.w3.org/2000/svg">
<path d="M7.5 19.5L7.5 18.5H7.5V19.5ZM17.5 19.5V20.5V19.5ZM13.5 5.5C13.5 4.94772 13.0523 4.5 12.5 4.5C11.9477 4.5 11.5 4.94772 11.5 5.5H13.5ZM12.5 14.5L11.7929 15.2071L12.5 15.9142L13.2071 15.2071L12.5 14.5ZM17.7071 10.7071C18.0976 10.3166 18.0976 9.68342 17.7071 9.29289C17.3166 8.90237 16.6834 8.90237 16.2929 9.29289L17.7071 10.7071ZM8.70711 9.29289C8.31658 8.90237 7.68342 8.90237 7.29289 9.29289C6.90237 9.68342 6.90237 10.3166 7.29289 10.7071L8.70711 9.29289ZM7.5 20.5L17.5 20.5V18.5L7.5 18.5L7.5 20.5ZM6.5 17.5V16.5H4.5V17.5H6.5ZM20.5 17.5V16.5H18.5V17.5H20.5ZM17.5 20.5C19.1569 20.5 20.5 19.1569 20.5 17.5H18.5C18.5 18.0523 18.0523 18.5 17.5 18.5V20.5ZM7.5 18.5C6.94772 18.5 6.5 18.0523 6.5 17.5H4.5C4.5 19.1569 5.84315 20.5 7.5 20.5V18.5ZM11.5 5.5V14.5H13.5V5.5H11.5ZM13.2071 15.2071L17.7071 10.7071L16.2929 9.29289L11.7929 13.7929L13.2071 15.2071ZM13.2071 13.7929L8.70711 9.29289L7.29289 10.7071L11.7929 15.2071L13.2071 13.7929Z" fill="#D43D27"/>
</svg>
