<svg width="32" height="32" viewBox="0 0 32 32" fill="none" xmlns="http://www.w3.org/2000/svg">
<g id="Group">
<path id="Vector" d="M16.0001 2.66699C23.3601 2.66699 29.3334 8.64033 29.3334 16.0003C29.3334 23.3603 23.3601 29.3337 16.0001 29.3337C8.64008 29.3337 2.66675 23.3603 2.66675 16.0003C2.66675 8.64033 8.64008 2.66699 16.0001 2.66699ZM8.03075 20.555C9.98808 23.475 12.9267 25.3337 16.2134 25.3337C19.4987 25.3337 22.4387 23.4763 24.3947 20.555C22.1757 18.4811 19.2507 17.3294 16.2134 17.3337C13.1757 17.3291 10.2501 18.4808 8.03075 20.555ZM16.0001 14.667C17.0609 14.667 18.0784 14.2456 18.8285 13.4954C19.5787 12.7453 20.0001 11.7279 20.0001 10.667C20.0001 9.60613 19.5787 8.58871 18.8285 7.83856C18.0784 7.08842 17.0609 6.66699 16.0001 6.66699C14.9392 6.66699 13.9218 7.08842 13.1717 7.83856C12.4215 8.58871 12.0001 9.60613 12.0001 10.667C12.0001 11.7279 12.4215 12.7453 13.1717 13.4954C13.9218 14.2456 14.9392 14.667 16.0001 14.667Z" fill="#84868E"/>
</g>
</svg>
